# xmcd
#
# Track frame offsets: 
#        150
#        18567
#        40580
#        61685
#        81402
#        102490
#        123565
#        147007
#        169425
#        191555
#        209160
#        232087
#        254437
#        276665
#        301642
#
# Disc length: 4332 seconds
#
# Revision: 0
# Processed by: cddbd v1.5.2PL0 Copyright (c) Steve Scherf et al.
# Submitted via: ExactAudioCopy v0.95b3
#
DISCID=e110ea0f
DTITLE=Various Artist - Super Eurobeat Vol. 215 - Extended Version
DYEAR=2011
DGENRE=Eurobeat
TTITLE0=Hotblade - Power Two
TTITLE1=Tora - No Turning Back
TTITLE2=Dave Rodgers - Skylight
TTITLE3=Alix - Maximisin'
TTITLE4=Dream Fighters - Are You Ready To Fly
TTITLE5=Delta Queens feat. Paul Harris - Love Is Like A Rain
TTITLE6=Jeff Driller - Mecha Fireball
TTITLE7=Luke - Time Of Fighters
TTITLE8=Candy More - I'll Fly
TTITLE9=Christine - Dancin' Together
TTITLE10=Boris - Shalaka Boom
TTITLE11=Heather - Beautiful Boy
TTITLE12=Cindy and Cy-Ro - Tower Of Love
TTITLE13=David Dima - Sunrise
TTITLE14=Lisa Johnson - Doctor Doctor (Healing Eurogrooves Remix)
EXTD=
EXTT0=
EXTT1=
EXTT2=
EXTT3=
EXTT4=
EXTT5=
EXTT6=
EXTT7=
EXTT8=
EXTT9=
EXTT10=
EXTT11=
EXTT12=
EXTT13=
EXTT14=
PLAYORDER=
